Final Destination 1
 
http://www.imdb.com/title/tt0195714/

Language : Hindi, English
Subtitles : English
Director : James Wong
Writers : Glen Morgan (screenplay), James Wong (screenplay)
Stars : Devon Sawa, Ali Larter and Kerr Smith
Genres : Horror | Thriller
Sample : Included


Quote:
General
Format : Matroska
File size : 577 MiB
Duration : 1h 37mn
Overall bit rate : 824 Kbps
Encoded date : UTC 2010-12-13 14:13:11
Writing application : mkvmerge v4.3.0 ('Escape from the Island') built on Sep 5 2010 10:30:51
Writing library : libebml v1.0.0 + libmatroska v1.0.0

Video
ID : 1
Format : AVC
Format/Info : Advanced Video Codec
Format profile : High@L4.1
Format settings, CABAC : Yes
Format settings, ReFrames : 2 frames
Muxing mode : Header stripping
Codec ID : V_MPEG4/ISO/AVC
Duration : 1h 37mn
Bit rate : 680 Kbps
Width : 1 280 pixels
Height : 690 pixels
Display aspect ratio : 1.850
Frame rate : 19.181 fps
Color space : YUV
Chroma subsampling : 4:2:0
Bit depth : 8 bits
Scan type : Progressive
Bits/(Pixel*Frame) : 0.040
Stream size : 1.9 Gb (82%)
Language : English

Audio #1
ID : 2
Format : AC-3
Format/Info : Audio Coding 3
Mode extension : CM (complete main)
Muxing mode : Header stripping
Codec ID : A_AC3
Duration : 1h 37mn
Bit rate mode : Constant
Bit rate : 64.0 Kbps
Channel(s) : 2 channels
Channel positions : Front: L R
Sampling rate : 48.0 KHz
Bit depth : 16 bits
Video delay : 7ms
Stream size : 44.9 MiB (8%)
Title : English
Language : English

Audio #2
ID : 3
Format : AC-3
Format/Info : Audio Coding 3
Mode extension : CM (complete main)
Muxing mode : Header stripping
Codec ID : A_AC3
Duration : 1h 37mn
Bit rate mode : Constant
Bit rate : 64.0 Kbps
Channel(s) : 2 channels
Channel positions : Front: L R
Sampling rate : 44.1 KHz
Bit depth : 16 bits
Video delay : 11ms
Stream size : 44.9 MiB (8%)
Title : Hindi
Language : Hindi

Text
ID : 4
Format : UTF-8
Codec ID : S_TEXT/UTF8
Codec ID/Info : UTF-8 Plain Text
Language : English


Final Destination 2
 
http://www.imdb.com/title/tt0309593/
Language : Hindi, English
Subtitles : English
Director : David R. Ellis
Writers : J. Mackye Gruber (screenplay), Eric Bress (screenplay)
Stars : A.J. Cook, Ali Larter and Tony Todd
Genres : Horror | Thriller
Sample : Included


Quote:
General


Duration : 1h 30mn
Overall bit rate : 1 002 Kbps
Encoded date : UTC 2010-12-14 15:26:31
Writing application : mkvmerge v4.3.0 ('Escape from the Island') built on Sep 5 2010 10:30:51
Writing library : libebml v1.0.0 + libmatroska v1.0.0

Video
ID : 1
Format : AVC
Format/Info : Advanced Video Codec
Format profile : High@L4.1
Format settings, CABAC : Yes
Format settings, ReFrames : 2 frames
Muxing mode : Header stripping
Codec ID : V_MPEG4/ISO/AVC
Duration : 1h 30mn
Bit rate : 816 Kbps
Width : 1 280 pixels
Height : 690 pixels
Display aspect ratio : 1.850
Frame rate : 19.181 fps
Color space : YUV
Chroma subsampling : 4:2:0
Bit depth : 8 bits
Scan type : Progressive
Bits/(Pixel*Frame) : 0.048
Stream size : 510 MiB (79%)
Writing library : x264 core 68 r1183M f21daff
Language : English

Audio #1
ID : 2
Format : AC-3
Format/Info : Audio Coding 3
Mode extension : CM (complete main)
Muxing mode : Header stripping
Codec ID : A_AC3
Duration : 1h 30mn
Bit rate mode : Constant
Bit rate : 64.0 Kbps
Channel(s) : 2 channels
Channel positions : Front: L R
Sampling rate : 48.0 KHz
Bit depth : 16 bits
Stream size : 41.3 MiB (6%)
Title : English
Language : English

Audio #2
ID : 3
Format : MPEG Audio
Format version : Version 1
Format profile : Layer 3
Mode : Joint stereo
Muxing mode : Header stripping
Codec ID : A_MPEG/L3
Codec ID/Hint : MP3
Duration : 45mn 24s
Bit rate mode : Constant
Bit rate : 128 Kbps
Channel(s) : 2 channels
Sampling rate : 44.1 KHz
Video delay : 2s 0ms
Stream size : 41.6 MiB (6%)
Title : Hindi
Writing library : LAME3.98r
Encoding settings : -m j -V 4 -q 2 -lowpass 17 -b 128
Language : Hindi

Text
ID : 4
Format : UTF-8
Codec ID : S_TEXT/UTF8
Codec ID/Info : UTF-8 Plain Text
Title : English


Final Destination 3

Language : Hindi, English
Subtitles : English
Director : David R. Ellis
Writers : J. Mackye Gruber (screenplay), Eric Bress (screenplay)
Stars : A.J. Cook, Ali Larter and Tony Todd
Genres : Horror | Thriller
Sample : Included



Quote:
General
Format : Matroska
File size : 646 MiB
Duration : 1h 30mn
Overall bit rate : 1 002 Kbps
Encoded date : UTC 2010-12-14 15:26:31
Writing application : mkvmerge v4.3.0 ('Escape from the Island') built on Sep 5 2010 10:30:51
Writing library : libebml v1.0.0 + libmatroska v1.0.0

Video
ID : 1
Format : AVC
Format/Info : Advanced Video Codec
Format profile : High@L4.1
Format settings, CABAC : Yes
Format settings, ReFrames : 2 frames
Muxing mode : Header stripping
Codec ID : V_MPEG4/ISO/AVC
Duration : 1h 30mn
Bit rate : 816 Kbps
Width : 1 280 pixels
Height : 690 pixels
Display aspect ratio : 1.850
Frame rate : 19.181 fps
Color space : YUV
Chroma subsampling : 4:2:0
Bit depth : 8 bits
Scan type : Progressive
Bits/(Pixel*Frame) : 0.048
Stream size : 510 MiB (79%)
Writing library : x264 core 68 r1183M f21daff

Language : English

Audio #1
ID : 2
Format : AC-3
Format/Info : Audio Coding 3
Mode extension : CM (complete main)
Muxing mode : Header stripping
Codec ID : A_AC3
Duration : 1h 30mn
Bit rate mode : Constant
Bit rate : 64.0 Kbps
Channel(s) : 2 channels
Channel positions : Front: L R
Sampling rate : 48.0 KHz
Bit depth : 16 bits
Stream size : 41.3 MiB (6%)
Title : English
Language : English

Audio #2
ID : 3
Format : MPEG Audio
Format version : Version 1
Format profile : Layer 3
Mode : Joint stereo
Muxing mode : Header stripping
Codec ID : A_MPEG/L3
Codec ID/Hint : MP3
Duration : 45mn 24s
Bit rate mode : Constant
Bit rate : 128 Kbps
Channel(s) : 2 channels
Sampling rate : 44.1 KHz
Video delay : 2s 0ms
Stream size : 41.6 MiB (6%)
Title : Hindi
Writing library : LAME3.98r
Encoding settings : -m j -V 4 -q 2 -lowpass 17 -b 128
Language : Hindi

Text
ID : 4
Format : UTF-8
Codec ID : S_TEXT/UTF8
Codec ID/Info : UTF-8 Plain Text
Title : English

Final Destination 4

 
http://www.imdb.com/title/tt1144884

Cast
Bobby Campo ... Nick O'Bannon
Shantel VanSanten ... Lori Milligan
Nick Zano ... Hunt Wynorski
Haley Webb ... Janet Cunningham
Mykelti Williamson ... George Lanter
Krista Allen ... Samantha Lane
Andrew Fiscella ... Andy Kewzer - Mechanic
Justin Welborn ... Carter Daniels
Stephanie Honore ... Nadia Monroy - Mechanic's GF
Lara Grice ... Cynthia Daniels
Jackson Walker ... Jonathan Grove - Cowboy
Phil Austin ... Samantha's Husband
William Aguillard ... Kid #1
Brendan Aguillard ... Kid #2
Juan Kincaid ... Newscaste

Release Title :- Final Destination.4
Release Date :- 28 August 2009
Length :- 01:21:50
Imdb Rating :- 5.0/10 15,331 votes
Genre :- Horror | Thriller
Language :- Dual Audio
Awards :-
Source :- DvDrip
Re Ripping x264
Total Size :- 511 MB

Format :- Matroska At 874 Kbps
Bitrate :- 664 Kbs
Encoding :- 2 Pass
Resolution :- 720 x 304
Quality Factor (QF) :- 0.158
Frame Rate :- 19,181 fps
Size :- 393 MB (77%)
Display Aspect Ratio :- 2.351

Audio 1: AC-3
Lenguage: English
Bitrate: 64 Kbit/s
Sample Rate: 48000Hz
Channels: 2 Channels
Size: 37.5 MB (7%)

Audio 2: MP-3
Lenguage: Hindi
Bitrate: 128 Kbit/s
Sample Rate: 48000Hz
Channels: 2 channels
Size: 74.3 MB (15%)

